<?xml version="1.0" encoding="UTF-8" standalone="no"?>
<svg
   xmlns:dc="http://purl.org/dc/elements/1.1/"
   xmlns:cc="http://creativecommons.org/ns#"
   xmlns:rdf="http://www.w3.org/1999/02/22-rdf-syntax-ns#"
   xmlns:svg="http://www.w3.org/2000/svg"
   xmlns="http://www.w3.org/2000/svg"
   xmlns:sodipodi="http://sodipodi.sourceforge.net/DTD/sodipodi-0.dtd"
   xmlns:inkscape="http://www.inkscape.org/namespaces/inkscape"
   viewBox="0 0 44 20.700001"
   width="44"
   height="20.700001"
   version="1.1"
   id="svg10"
   sodipodi:docname="icons8-arduino.svg"
   inkscape:version="0.92.3 (2405546, 2018-03-11)">
  <metadata
     id="metadata16">
    <rdf:RDF>
      <cc:Work
         rdf:about="">
        <dc:format>image/svg+xml</dc:format>
        <dc:type
           rdf:resource="http://purl.org/dc/dcmitype/StillImage" />
        <dc:title></dc:title>
      </cc:Work>
    </rdf:RDF>
  </metadata>
  <defs
     id="defs14" />
  <sodipodi:namedview
     pagecolor="#ffffff"
     bordercolor="#666666"
     borderopacity="1"
     objecttolerance="10"
     gridtolerance="10"
     guidetolerance="10"
     inkscape:pageopacity="0"
     inkscape:pageshadow="2"
     inkscape:window-width="905"
     inkscape:window-height="480"
     id="namedview12"
     showgrid="false"
     fit-margin-top="0"
     fit-margin-left="0"
     fit-margin-right="0"
     fit-margin-bottom="0"
     inkscape:zoom="4.9166667"
     inkscape:cx="22"
     inkscape:cy="10.7"
     inkscape:window-x="0"
     inkscape:window-y="0"
     inkscape:window-maximized="0"
     inkscape:current-layer="layer1" />
  <g
     inkscape:groupmode="layer"
     id="layer1"
     inkscape:label="Layer 1"
     transform="translate(-2,-14)">
    <path
       style="fill:#009688"
       d="M 35.7,34.7 C 28,34.7 22.5,25.8 22.3,25.4 l -0.6,-1 0.6,-1 C 22.5,22.9 28,14 35.7,14 41.4,14 46,18.6 46,24.3 46,30 41.4,34.7 35.7,34.7 Z M 26.4,24.3 c 1.5,2 5.1,6.3 9.2,6.3 3.5,0 6.3,-2.8 6.3,-6.3 0,-3.5 -2.8,-6.3 -6.3,-6.3 -4.1,0 -7.7,4.3 -9.2,6.3 z"
       id="path2"
       inkscape:connector-curvature="0" />
    <path
       style="fill:#009688"
       d="M 12.3,34.7 C 6.6,34.7 2,30 2,24.3 2,18.6 6.6,14 12.3,14 c 7.9,0 13.2,8.9 13.4,9.3 l 0.6,1 -0.6,1 C 25.5,25.7 20,34.7 12.3,34.7 Z M 12.3,18 C 8.8,18 6,20.8 6,24.3 c 0,3.5 2.8,6.3 6.3,6.3 4.2,0 7.8,-4.3 9.3,-6.3 -1.4,-2 -5,-6.3 -9.3,-6.3 z"
       id="path4"
       inkscape:connector-curvature="0" />
    <path
       style="fill:#009688"
       d="m 10,23 h 6 v 2 h -6 z m 22,0 h 6 v 2 h -6 z"
       id="path6"
       inkscape:connector-curvature="0" />
    <path
       style="fill:#009688"
       d="m 34,21 h 2 v 6 h -2 z"
       id="path8"
       inkscape:connector-curvature="0" />
  </g>
</svg>
